<!-- https://www.veryicon.com/icons/leisure/want-to-take-you-on-a-trip/map-54.html -->
<svg class="svg-icon" style="width: 1em; height: 1em; vertical-align: middle; fill: currentColor; overflow: hidden;" viewBox="0 0 1024 1024" version="1.1" xmlns="http://www.w3.org/2000/svg">
  <path d="M403.968 299.008c18.432-39.424 33.792-83.456 44.032-129.536H246.272c-40.448 0-73.728 33.28-73.728 73.728V317.44c78.848-22.528 158.208-27.136 231.424-18.432z" fill="#4D4D4D" />
  <path d="M291.328 467.968c26.112-25.6 66.56-78.336 101.376-146.432-11.776-2.048-24.064-3.584-36.864-4.096-74.24-5.12-139.776 12.288-183.808 28.672v128c9.728 14.848 18.432 29.696 26.624 43.52 26.624-7.68 65.536-23.04 92.672-49.664z" fill="#6B6B6B" />
  <path d="M412.16 324.608c-5.632 11.264-11.776 21.504-17.92 30.72C353.28 414.72 318.976 501.76 205.824 530.432c52.224 92.672 77.824 166.912 90.112 222.208 17.408-3.072 31.744-5.632 38.912-8.192 28.672-8.704 135.168-29.696 184.832-28.16 46.592-1.536 119.808 33.792 172.032 31.744 16.384-0.512 40.448-6.144 66.048-12.8-14.848-34.304-37.376-83.456-41.984-89.088-28.16-66.048-72.192-165.888-64.512-281.088-104.96-2.048-169.984-26.624-239.104-40.448z" fill="#333333" />
  <path d="M172.032 513.024v10.752c1.024 0 3.072-0.512 5.12-1.024-1.536-3.584-3.584-6.656-5.12-9.728zM517.632 324.608c34.816 13.312 84.48 17.408 135.68 17.408 0.512-4.608 1.024-8.704 2.048-13.312 8.192-79.36 22.016-131.072 31.232-159.744H465.408c-5.12 22.528-19.968 80.896-41.984 132.096 32.768 5.632 64.512 13.312 94.208 23.552z" fill="#777777" />
  <path d="M799.744 846.336c30.72-9.216 53.248-37.376 53.248-70.656v-47.104c-17.92 5.12-45.056 12.8-72.704 19.968 10.752 38.912 18.432 78.848 19.456 97.792z" fill="#4D4D4D" />
  <path d="M271.872 756.736c-19.968-84.48-63.488-174.592-88.064-221.184-4.096 0.512-7.68 1.024-11.776 1.536v226.816c28.16 1.024 67.072-2.56 99.84-7.168z" fill="#6B6B6B" />
  <path d="M778.752 168.96h-67.584c-5.632 12.8-33.28 80.384-40.448 172.544 75.776-1.536 150.528-11.264 181.76-15.872V243.2c0-40.96-33.28-74.24-73.728-74.24z" fill="#222222" />
  <path d="M677.376 475.648c19.456 70.656 32.256 120.32 78.848 210.944 6.144 12.8 12.288 28.16 17.92 44.544 29.696-8.704 59.392-18.944 78.336-25.6V348.16c-72.704 13.312-132.096 17.92-182.784 17.92-1.024 34.304 1.024 71.168 7.68 109.568zM778.752 849.408h-8.192c2.56-23.552 5.632-69.12-1.536-87.552-1.024-2.56-2.56-6.144-4.096-9.728-27.648 6.656-54.784 12.288-73.216 14.336-53.76 5.12-106.496-22.528-165.888-27.648-53.76-4.608-161.792 19.456-225.792 33.28 6.656 36.352 7.168 61.952 6.144 77.312" fill="#777777" />
</svg>



