<!-- https://www.veryicon.com/icons/business/charticon/chord-diagram.html -->
<svg class="svg-icon" style="width: 1em;height: 1em;vertical-align: middle;fill: #444444; overflow: hidden;" viewBox="0 0 1024 1024" version="1.1" xmlns="http://www.w3.org/2000/svg"><path d="M224 260.266667C294.4 179.2 396.8 128 512 128c83.2 0 160 27.733333 221.866667 72.533333l27.733333-32C691.2 115.2 605.866667 85.333333 512 85.333333c-128 0-243.2 57.6-320 147.2l32 27.733334zM750.933333 213.333333c87.466667 70.4 145.066667 179.2 145.066667 298.666667 0 89.6-32 174.933333-85.333333 238.933333l32 27.733334C902.4 706.133333 938.666667 612.266667 938.666667 512c0-134.4-61.866667-253.866667-160-332.8L750.933333 213.333333zM797.866667 768c-70.4 78.933333-172.8 128-285.866667 128-96 0-185.6-36.266667-253.866667-96L232.533333 832c74.666667 66.133333 172.8 106.666667 279.466667 106.666667 125.866667 0 238.933333-55.466667 317.866667-142.933334L797.866667 768zM215.466667 819.2l27.733333-32C172.8 716.8 128 618.666667 128 512c0-89.6 32-170.666667 83.2-236.8l-32-27.733333C119.466667 320 85.333333 411.733333 85.333333 512c0 119.466667 51.2 228.266667 130.133334 307.2z" fill="#444444" /><path d="M866.133333 413.866667C563.2 413.866667 450.133333 128 448 123.733333l19.2-8.533333c2.133333 2.133333 117.333333 296.533333 433.066667 275.2l2.133333 21.333333c-12.8 2.133333-23.466667 2.133333-36.266667 2.133334z" fill="#444444" /><path d="M857.6 712.533333c-341.333333-136.533333-209.066667-578.133333-209.066667-582.4l21.333334 6.4c-2.133333 4.266667-128 426.666667 196.266666 554.666667l-8.533333 21.333333z" fill="#444444" /><path d="M691.2 874.666667c-70.4-132.266667-87.466667-253.866667-53.333333-362.666667 49.066667-160 189.866667-232.533333 196.266666-236.8l10.666667 19.2c-2.133333 0-138.666667 74.666667-185.6 224-32 104.533333-14.933333 219.733333 53.333333 345.6l-21.333333 10.666667z" fill="#444444" /><path d="M296.533333 857.6l-19.2-8.533333c198.4-430.933333 629.333333-283.733333 633.6-281.6l-6.4 19.2c-17.066667-6.4-418.133333-142.933333-608 270.933333zM187.733333 753.066667l-12.8-17.066667C488.533333 475.733333 300.8 170.666667 298.666667 166.4l17.066666-10.666667c2.133333 2.133333 200.533333 324.266667-128 597.333334z" fill="#444444" /><path d="M646.4 896c-170.666667-411.733333-529.066667-309.333333-531.2-309.333333l-6.4-21.333334c4.266667-2.133333 379.733333-108.8 556.8 320l-19.2 10.666667z" fill="#444444" /><path d="M469.333333 915.2l-21.333333-4.266667c36.266667-179.2 17.066667-320-57.6-416C294.4 371.2 138.666667 362.666667 136.533333 362.666667v-21.333334c6.4 0 166.4 8.533333 268.8 140.8 78.933333 100.266667 100.266667 247.466667 64 433.066667z" fill="#444444" /><path d="M113.066667 529.066667l-2.133334-21.333334C554.666667 450.133333 544 125.866667 541.866667 110.933333l21.333333-2.133333c0 6.4 14.933333 360.533333-450.133333 420.266667z" fill="#444444" /></svg>