<!-- https://www.veryicon.com/icons/leisure/want-to-take-you-on-a-trip/map-54.html -->
<svg class="svg-icon" style="width: 1em; height: 1em;vertical-align: middle;fill: currentColor;overflow: hidden;" viewBox="0 0 1024 1024" version="1.1" xmlns="http://www.w3.org/2000/svg"><path d="M512 128A480 480 0 0 0 106.56 864h810.88A480 480 0 0 0 512 128z m-48 132.16a48 48 0 0 1 96 0v55.68a48 48 0 0 1-96 0zM219.84 656H164.16a48 48 0 1 1 0-96h55.68a48 48 0 0 1 0 96zM305.28 448a48 48 0 0 1-33.92-14.08l-39.36-38.08a48 48 0 0 1 67.84-67.84l39.36 39.36A48 48 0 0 1 305.28 448zM512 768a160 160 0 1 1 41.28-313.92l224-156.8a32 32 0 0 1 45.12 45.12l-156.8 224A158.08 158.08 0 0 1 512 768z m347.84-112h-55.68a48 48 0 1 1 0-96h55.68a48 48 0 0 1 0 96zM512 544a64 64 0 1 0 64 64 64 64 0 0 0-64-64z" fill="#444444" /></svg>


